<svg version="1.1" viewBox="0.0 0.0 971.0472440944882 181.0262467191601" fill="none" stroke="none" stroke-linecap="square" stroke-miterlimit="10" xmlns:xlink="http://www.w3.org/1999/xlink" xmlns="http://www.w3.org/2000/svg"><clipPath id="p.0"><path d="m0 0l971.04724 0l0 181.02625l-971.04724 0l0 -181.02625z" clip-rule="nonzero"/></clipPath><g clip-path="url(#p.0)"><path fill="#000000" fill-opacity="0.0" d="m0 0l971.04724 0l0 181.02625l-971.04724 0z" fill-rule="evenodd"/><path fill="#000000" fill-opacity="0.0" d="m0 0l1099.6536 0l0 185.82677l-1099.6536 0z" fill-rule="evenodd"/><path fill="#ffffff" d="m43.46875 140.84l-31.453125 -96.125l23.078125 0l27.328125 85.140625l-11.53125 0l28.5625 -85.140625l20.59375 0l27.46875 85.140625l-11.125 0l28.015625 -85.140625l21.28125 0l-31.4375 96.125l-23.90625 0l-24.296875 -74.703125l6.3125 0l-25.0 74.703125l-23.890625 0zm134.44785 0l0 -73.875l21.421875 0l0 73.875l-21.421875 0zm10.71875 -84.1875q-5.90625 0 -9.625 -3.421875q-3.703125 -3.4375 -3.703125 -8.515625q0 -5.078125 3.703125 -8.515625q3.71875 -3.4375 9.625 -3.4375q5.90625 0 9.609375 3.234375q3.703125 3.21875 3.703125 8.296875q0 5.359375 -3.640625 8.859375q-3.640625 3.5 -9.671875 3.5zm30.61702 84.1875l0 -101.890625l21.421875 0l0 101.890625l-21.421875 0zm41.33577 0l0 -101.890625l21.421875 0l0 101.890625l-21.421875 0zm128.12149 1.640625q-11.390625 0 -20.9375 -3.625q-9.546875 -3.640625 -16.625 -10.375q-7.0625 -6.734375 -10.984375 -15.796875q-3.90625 -9.0625 -3.90625 -19.90625q0 -10.84375 3.90625 -19.90625q3.921875 -9.078125 11.0625 -15.796875q7.140625 -6.734375 16.75 -10.375q9.609375 -3.640625 21.15625 -3.640625q12.765625 0 22.984375 4.265625q10.234375 4.25 17.25 12.359375l-14.28125 13.171875q-5.21875 -5.484375 -11.40625 -8.15625q-6.171875 -2.6875 -13.453125 -2.6875q-7.0 0 -12.78125 2.203125q-5.765625 2.1875 -9.953125 6.3125q-4.1875 4.125 -6.453125 9.75q-2.265625 5.625 -2.265625 12.5q0 6.734375 2.265625 12.359375q2.265625 5.625 6.453125 9.8125q4.1875 4.1875 9.890625 6.390625q5.703125 2.203125 12.5625 2.203125q6.59375 0 12.84375 -2.125q6.25 -2.140625 12.15625 -7.21875l12.625 16.0625q-7.828125 5.90625 -18.203125 9.0625q-10.359375 3.15625 -20.65625 3.15625zm18.546875 -15.09375l0 -36.125l20.3125 0l0 39.0l-20.3125 -2.875zm39.411255 13.453125l0 -73.875l20.453125 0l0 20.859375l-2.875 -6.03125q3.296875 -7.828125 10.5625 -11.875q7.28125 -4.0625 17.71875 -4.0625l0 19.78125q-1.375 -0.140625 -2.46875 -0.203125q-1.09375 -0.078125 -2.328125 -0.078125q-8.796875 0 -14.21875 5.015625q-5.421875 5.015625 -5.421875 15.59375l0 34.875l-21.421875 0zm58.6391 0l0 -73.875l21.421906 0l0 73.875l-21.421906 0zm10.7187805 -84.1875q-5.9062805 0 -9.6250305 -3.421875q-3.703125 -3.4375 -3.703125 -8.515625q0 -5.078125 3.703125 -8.515625q3.71875 -3.4375 9.6250305 -3.4375q5.90625 0 9.609375 3.234375q3.703125 3.21875 3.703125 8.296875q0 5.359375 -3.640625 8.859375q-3.640625 3.5 -9.671875 3.5zm33.22638 84.1875l0 -75.53125q0 -12.5 7.40625 -19.984375q7.421875 -7.484375 21.15625 -7.484375q4.671875 0 8.984375 0.96875q4.328125 0.953125 7.359375 3.015625l-5.640625 15.515625q-1.78125 -1.234375 -3.984375 -1.921875q-2.1875 -0.6875 -4.65625 -0.6875q-4.671875 0 -7.21875 2.6875q-2.53125 2.671875 -2.53125 8.03125l0 6.859375l0.546875 9.203125l0 59.328125l-21.421875 0zm-11.40625 -55.75l0 -16.484375l51.234375 0l0 16.484375l-51.234375 0zm64.552246 55.75l0 -75.53125q0 -12.5 7.40625 -19.984375q7.421875 -7.484375 21.15625 -7.484375q4.671875 0 8.984375 0.96875q4.328125 0.953125 7.359375 3.015625l-5.640625 15.515625q-1.78125 -1.234375 -3.984375 -1.921875q-2.1875 -0.6875 -4.65625 -0.6875q-4.671875 0 -7.21875 2.6875q-2.53125 2.671875 -2.53125 8.03125l0 6.859375l0.546875 9.203125l0 59.328125l-21.421875 0zm-11.40625 -55.75l0 -16.484375l51.234375 0l0 16.484375l-51.234375 0zm63.3125 55.75l0 -73.875l21.421875 0l0 73.875l-21.421875 0zm10.71875 -84.1875q-5.90625 0 -9.625 -3.421875q-3.703125 -3.4375 -3.703125 -8.515625q0 -5.078125 3.703125 -8.515625q3.71875 -3.4375 9.625 -3.4375q5.90625 0 9.609375 3.234375q3.703125 3.21875 3.703125 8.296875q0 5.359375 -3.640625 8.859375q-3.640625 3.5 -9.671875 3.5zm65.63959 85.28125q-11.8125 0 -20.953125 -4.9375q-9.125 -4.9375 -14.421875 -13.515625q-5.28125 -8.59375 -5.28125 -19.578125q0 -11.125 5.28125 -19.703125q5.296875 -8.59375 14.421875 -13.46875q9.140625 -4.875 20.953125 -4.875q11.671875 0 20.875 4.875q9.203125 4.875 14.421875 13.390625q5.21875 8.515625 5.21875 19.78125q0 10.984375 -5.21875 19.578125q-5.21875 8.578125 -14.421875 13.515625q-9.203125 4.9375 -20.875 4.9375zm0 -17.578125q5.359375 0 9.609375 -2.46875q4.25 -2.46875 6.71875 -7.0625q2.484375 -4.609375 2.484375 -10.921875q0 -6.453125 -2.484375 -10.984375q-2.46875 -4.53125 -6.71875 -7.0q-4.25 -2.484375 -9.609375 -2.484375q-5.359375 0 -9.625 2.484375q-4.25 2.46875 -6.796875 7.0q-2.53125 4.53125 -2.53125 10.984375q0 6.3125 2.53125 10.921875q2.546875 4.59375 6.796875 7.0625q4.265625 2.46875 9.625 2.46875zm91.44995 17.578125q-12.625 0 -22.171875 -4.9375q-9.546875 -4.9375 -14.765625 -13.515625q-5.21875 -8.59375 -5.21875 -19.578125q0 -11.125 5.140625 -19.703125q5.15625 -8.59375 14.078125 -13.46875q8.9375 -4.875 20.203125 -4.875q10.84375 0 19.5625 4.609375q8.71875 4.59375 13.796875 13.1875q5.09375 8.578125 5.09375 20.515625q0 1.234375 -0.140625 2.828125q-0.140625 1.578125 -0.28125 2.9375l-60.015625 0l0 -12.484375l48.765625 0l-8.25 3.703125q0 -5.765625 -2.34375 -10.015625q-2.328125 -4.265625 -6.453125 -6.671875q-4.109375 -2.40625 -9.609375 -2.40625q-5.484375 0 -9.671875 2.40625q-4.1875 2.40625 -6.53125 6.734375q-2.328125 4.328125 -2.328125 10.234375l0 3.28125q0 6.046875 2.671875 10.65625q2.6875 4.59375 7.5625 7.0q4.875 2.40625 11.46875 2.40625q5.90625 0 10.359375 -1.78125q4.46875 -1.796875 8.171875 -5.359375l11.40625 12.359375q-5.09375 5.765625 -12.78125 8.859375q-7.6875 3.078125 -17.71875 3.078125zm94.90405 -76.078125q8.78125 0 15.71875 3.5q6.9375 3.5 10.921875 10.71875q3.984375 7.203125 3.984375 18.46875l0 42.296875l-21.421875 0l0 -39.0q0 -8.921875 -3.921875 -13.171875q-3.90625 -4.265625 -11.046875 -4.265625q-5.09375 0 -9.140625 2.125q-4.046875 2.125 -6.3125 6.53125q-2.265625 4.390625 -2.265625 11.25l0 36.53125l-21.421875 0l0 -73.875l20.453125 0l0 20.453125l-3.84375 -6.171875q3.984375 -7.421875 11.390625 -11.40625q7.421875 -3.984375 16.90625 -3.984375z" fill-rule="nonzero"/></g></svg>